<mxfile host="app.diagrams.net" modified="2022-06-15T13:47:57.743Z" agent="5.0 (Windows NT 10.0; Win64; x64) AppleWebKit/537.36 (KHTML, like Gecko) Chrome/102.0.5005.63 Safari/537.36 Edg/102.0.1245.39" etag="crHwqmPuqcvcDx-vvDq0" version="20.0.1" type="github">
  <diagram id="lPrCDPQLiQtTWRauQyFC" name="Page-1">
    <mxGraphModel dx="1422" dy="786" grid="1" gridSize="10" guides="1" tooltips="1" connect="1" arrows="1" fold="1" page="1" pageScale="1" pageWidth="850" pageHeight="1100" math="0" shadow="0">
      <root>
        <mxCell id="0" />
        <mxCell id="1" parent="0" />
        <mxCell id="xXB0880YJBGl5hXITFnQ-6" style="rounded=0;orthogonalLoop=1;jettySize=auto;html=1;edgeStyle=orthogonalEdgeStyle;curved=1;" parent="1" source="xXB0880YJBGl5hXITFnQ-10" target="xXB0880YJBGl5hXITFnQ-12" edge="1">
          <mxGeometry relative="1" as="geometry" />
        </mxCell>
        <mxCell id="VBMkfDUlIMW8kVnEWXf--6" value="Create/Read/Update/Delete content&lt;br&gt;and user authorization&amp;nbsp;&lt;br&gt;&lt;i&gt;[PULL/PUSH content and user authorization]&lt;/i&gt;" style="edgeLabel;html=1;align=center;verticalAlign=middle;resizable=0;points=[];" parent="xXB0880YJBGl5hXITFnQ-6" vertex="1" connectable="0">
          <mxGeometry x="-0.1386" relative="1" as="geometry">
            <mxPoint x="-77.5" as="offset" />
          </mxGeometry>
        </mxCell>
        <mxCell id="xXB0880YJBGl5hXITFnQ-8" style="rounded=0;orthogonalLoop=1;jettySize=auto;html=1;edgeStyle=orthogonalEdgeStyle;entryX=0.5;entryY=0;entryDx=0;entryDy=0;entryPerimeter=0;curved=1;exitX=0.5;exitY=1;exitDx=0;exitDy=0;exitPerimeter=0;" parent="1" source="xXB0880YJBGl5hXITFnQ-10" edge="1">
          <mxGeometry relative="1" as="geometry">
            <mxPoint x="355" y="750" as="sourcePoint" />
            <mxPoint x="530" y="890" as="targetPoint" />
          </mxGeometry>
        </mxCell>
        <mxCell id="VBMkfDUlIMW8kVnEWXf--7" value="Create/Read/Update/Delete documents &amp;amp; files&amp;nbsp;&lt;br&gt;&lt;i&gt;[PULL/PUSH&amp;nbsp;&amp;nbsp;&lt;/i&gt;documents&amp;nbsp;&amp;amp;&amp;nbsp;&lt;i&gt;files]&lt;/i&gt;" style="edgeLabel;html=1;align=center;verticalAlign=middle;resizable=0;points=[];" parent="xXB0880YJBGl5hXITFnQ-8" vertex="1" connectable="0">
          <mxGeometry x="0.1442" y="-14" relative="1" as="geometry">
            <mxPoint x="29" y="26" as="offset" />
          </mxGeometry>
        </mxCell>
        <mxCell id="Bu7_vYAvOQrZbztzWP5K-9" style="edgeStyle=orthogonalEdgeStyle;curved=1;rounded=0;orthogonalLoop=1;jettySize=auto;html=1;exitX=0.75;exitY=1;exitDx=0;exitDy=0;exitPerimeter=0;" parent="1" source="xXB0880YJBGl5hXITFnQ-10" target="Bu7_vYAvOQrZbztzWP5K-8" edge="1">
          <mxGeometry relative="1" as="geometry" />
        </mxCell>
        <mxCell id="Bu7_vYAvOQrZbztzWP5K-10" value="Send system emails&lt;br&gt;[PUSH email]" style="edgeLabel;html=1;align=center;verticalAlign=middle;resizable=0;points=[];" parent="Bu7_vYAvOQrZbztzWP5K-9" vertex="1" connectable="0">
          <mxGeometry x="-0.0836" y="9" relative="1" as="geometry">
            <mxPoint as="offset" />
          </mxGeometry>
        </mxCell>
        <object placeholders="1" c4Name="Drupal  Modules" c4Type="Container" c4Technology="PHP" c4Description="Drupal Core and Contributed Modules" label="&lt;b&gt;%c4Name%&lt;/b&gt;&lt;div&gt;[%c4Type%: %c4Technology%]&lt;/div&gt;&lt;br&gt;&lt;div&gt;%c4Description%&lt;/div&gt;" id="xXB0880YJBGl5hXITFnQ-10">
          <mxCell style="rounded=1;whiteSpace=wrap;html=1;labelBackgroundColor=none;fillColor=#85BBF0;fontColor=#ffffff;align=center;arcSize=10;strokeColor=#78A8D8;metaEdit=1;metaData={&quot;c4Type&quot;:{&quot;editable&quot;:false}};points=[[0.25,0,0],[0.5,0,0],[0.75,0,0],[1,0.25,0],[1,0.5,0],[1,0.75,0],[0.75,1,0],[0.5,1,0],[0.25,1,0],[0,0.75,0],[0,0.5,0],[0,0.25,0]];" parent="1" vertex="1">
            <mxGeometry x="310" y="665" width="135" height="85" as="geometry" />
          </mxCell>
        </object>
        <mxCell id="xXB0880YJBGl5hXITFnQ-11" value="&lt;font color=&quot;#ffffff&quot;&gt;&lt;br&gt;&lt;b&gt;&lt;br&gt;Drupal Files&lt;/b&gt;&lt;br&gt;&lt;i&gt;[Storage Service]&lt;/i&gt;&lt;br&gt;&lt;br&gt;File Storage Service that holds Drupal&amp;nbsp; system and uploaded files&lt;/font&gt;" style="strokeWidth=2;html=1;shape=mxgraph.flowchart.database;whiteSpace=wrap;fillColor=#85BBF0;" parent="1" vertex="1">
          <mxGeometry x="465" y="890" width="180" height="150" as="geometry" />
        </mxCell>
        <mxCell id="xXB0880YJBGl5hXITFnQ-12" value="&lt;font color=&quot;#ffffff&quot;&gt;&lt;b&gt;&lt;br&gt;&lt;br&gt;Drupal Database&lt;br&gt;&lt;/b&gt;&lt;i&gt;[MySQL Database]&lt;/i&gt;&lt;br&gt;&lt;br&gt;Database that contains Drupal content&lt;br&gt;&lt;/font&gt;" style="strokeWidth=2;html=1;shape=mxgraph.flowchart.database;whiteSpace=wrap;fillColor=#85BBF0;" parent="1" vertex="1">
          <mxGeometry x="140" y="870" width="205" height="170" as="geometry" />
        </mxCell>
        <mxCell id="xXB0880YJBGl5hXITFnQ-13" style="rounded=0;orthogonalLoop=1;jettySize=auto;html=1;entryX=0.5;entryY=0;entryDx=0;entryDy=0;entryPerimeter=0;" parent="1" source="xXB0880YJBGl5hXITFnQ-14" target="xXB0880YJBGl5hXITFnQ-10" edge="1">
          <mxGeometry relative="1" as="geometry" />
        </mxCell>
        <mxCell id="VBMkfDUlIMW8kVnEWXf--4" value="Read content and download files&lt;br&gt;&lt;i&gt;[PULL Content and files]&lt;/i&gt;" style="edgeLabel;html=1;align=center;verticalAlign=middle;resizable=0;points=[];" parent="xXB0880YJBGl5hXITFnQ-13" vertex="1" connectable="0">
          <mxGeometry x="-0.2731" y="1" relative="1" as="geometry">
            <mxPoint x="34.83" as="offset" />
          </mxGeometry>
        </mxCell>
        <object placeholders="1" c4Name="Drupal Presentation Layer" c4Type="Container" c4Technology="Theme" c4Description="User interface for public users" label="&lt;b&gt;%c4Name%&lt;/b&gt;&lt;div&gt;[%c4Type%: %c4Technology%]&lt;/div&gt;&lt;br&gt;&lt;div&gt;%c4Description%&lt;/div&gt;" id="xXB0880YJBGl5hXITFnQ-14">
          <mxCell style="rounded=1;whiteSpace=wrap;html=1;labelBackgroundColor=none;fillColor=#85BBF0;fontColor=#ffffff;align=center;arcSize=10;strokeColor=#78A8D8;metaEdit=1;metaData={&quot;c4Type&quot;:{&quot;editable&quot;:false}};points=[[0.25,0,0],[0.5,0,0],[0.75,0,0],[1,0.25,0],[1,0.5,0],[1,0.75,0],[0.75,1,0],[0.5,1,0],[0.25,1,0],[0,0.75,0],[0,0.5,0],[0,0.25,0]];" parent="1" vertex="1">
            <mxGeometry x="380" y="470" width="160" height="110.00000000000001" as="geometry" />
          </mxCell>
        </object>
        <mxCell id="xXB0880YJBGl5hXITFnQ-15" style="rounded=0;orthogonalLoop=1;jettySize=auto;html=1;" parent="1" source="xXB0880YJBGl5hXITFnQ-17" target="VBMkfDUlIMW8kVnEWXf--1" edge="1">
          <mxGeometry relative="1" as="geometry" />
        </mxCell>
        <mxCell id="VBMkfDUlIMW8kVnEWXf--11" value="Create/Read/Update/Delete content and files&amp;nbsp;&lt;br&gt;&lt;i&gt;[PULL/PUSH content and files]&lt;/i&gt;" style="edgeLabel;html=1;align=center;verticalAlign=middle;resizable=0;points=[];" parent="xXB0880YJBGl5hXITFnQ-15" vertex="1" connectable="0">
          <mxGeometry x="-0.1663" y="1" relative="1" as="geometry">
            <mxPoint x="-109.19999999999999" y="-24.4" as="offset" />
          </mxGeometry>
        </mxCell>
        <mxCell id="dWL9C9GRhWla6cgMhubv-4" style="edgeStyle=orthogonalEdgeStyle;rounded=0;orthogonalLoop=1;jettySize=auto;html=1;entryX=0;entryY=0.5;entryDx=0;entryDy=0;entryPerimeter=0;" parent="1" source="xXB0880YJBGl5hXITFnQ-17" target="xXB0880YJBGl5hXITFnQ-12" edge="1">
          <mxGeometry relative="1" as="geometry">
            <mxPoint x="30" y="690" as="targetPoint" />
            <Array as="points">
              <mxPoint x="20" y="355" />
              <mxPoint x="20" y="955" />
            </Array>
          </mxGeometry>
        </mxCell>
        <mxCell id="xXB0880YJBGl5hXITFnQ-17" value="&lt;font color=&quot;#ffffff&quot;&gt;&lt;b&gt;UN Azure AD&lt;/b&gt;&lt;br&gt;&lt;br&gt;UN Azure Authentication Directory&lt;/font&gt;" style="rounded=1;whiteSpace=wrap;html=1;strokeColor=#000000;fillColor=#999999;" parent="1" vertex="1">
          <mxGeometry x="305" y="310" width="160" height="90" as="geometry" />
        </mxCell>
        <mxCell id="xXB0880YJBGl5hXITFnQ-18" style="rounded=0;orthogonalLoop=1;jettySize=auto;html=1;entryX=0;entryY=0.111;entryDx=0;entryDy=0;entryPerimeter=0;" parent="1" target="xXB0880YJBGl5hXITFnQ-17" edge="1">
          <mxGeometry relative="1" as="geometry">
            <mxPoint x="160" y="270" as="sourcePoint" />
          </mxGeometry>
        </mxCell>
        <mxCell id="tikoANbS7xd-wqHKqE32-7" style="edgeStyle=orthogonalEdgeStyle;curved=1;rounded=0;orthogonalLoop=1;jettySize=auto;html=1;entryX=0;entryY=0.25;entryDx=0;entryDy=0;entryPerimeter=0;startArrow=none;startFill=0;" parent="1" target="VBMkfDUlIMW8kVnEWXf--1" edge="1">
          <mxGeometry relative="1" as="geometry">
            <mxPoint x="150" y="270" as="sourcePoint" />
            <Array as="points">
              <mxPoint x="110" y="270" />
              <mxPoint x="110" y="508" />
            </Array>
          </mxGeometry>
        </mxCell>
        <mxCell id="dJNGcctZBXjR5YwxkmDR-4" value="Create/Read/Update/Delete content, files&amp;nbsp;&lt;br&gt;and user authorization&lt;br&gt;&lt;i&gt;[PULL/PUSH content, files and user authorization&lt;/i&gt;]" style="edgeLabel;html=1;align=center;verticalAlign=middle;resizable=0;points=[];" parent="tikoANbS7xd-wqHKqE32-7" vertex="1" connectable="0">
          <mxGeometry x="-0.2179" y="3" relative="1" as="geometry">
            <mxPoint x="17" y="-26" as="offset" />
          </mxGeometry>
        </mxCell>
        <mxCell id="xXB0880YJBGl5hXITFnQ-20" value="Administrator&lt;br&gt;A user of website who manages it&amp;nbsp;" style="shape=umlActor;verticalLabelPosition=bottom;verticalAlign=top;html=1;outlineConnect=0;strokeColor=#000000;fillColor=#ffffff;" parent="1" vertex="1">
          <mxGeometry x="145" y="170" width="30" height="60" as="geometry" />
        </mxCell>
        <mxCell id="xXB0880YJBGl5hXITFnQ-21" style="rounded=0;orthogonalLoop=1;jettySize=auto;html=1;" parent="1" target="xXB0880YJBGl5hXITFnQ-17" edge="1">
          <mxGeometry relative="1" as="geometry">
            <mxPoint x="430" y="230" as="sourcePoint" />
          </mxGeometry>
        </mxCell>
        <mxCell id="VBMkfDUlIMW8kVnEWXf--8" value="Pass Authentication Info" style="edgeLabel;html=1;align=center;verticalAlign=middle;resizable=0;points=[];labelBorderColor=#2FFF0F;" parent="xXB0880YJBGl5hXITFnQ-21" vertex="1" connectable="0">
          <mxGeometry x="-0.3974" y="-1" relative="1" as="geometry">
            <mxPoint as="offset" />
          </mxGeometry>
        </mxCell>
        <mxCell id="tikoANbS7xd-wqHKqE32-5" style="edgeStyle=orthogonalEdgeStyle;curved=1;rounded=0;orthogonalLoop=1;jettySize=auto;html=1;entryX=0.25;entryY=0;entryDx=0;entryDy=0;entryPerimeter=0;startArrow=none;startFill=0;" parent="1" target="VBMkfDUlIMW8kVnEWXf--1" edge="1">
          <mxGeometry relative="1" as="geometry">
            <Array as="points">
              <mxPoint x="170" y="190" />
            </Array>
            <mxPoint x="410" y="190" as="sourcePoint" />
          </mxGeometry>
        </mxCell>
        <mxCell id="xXB0880YJBGl5hXITFnQ-22" value="Editor&lt;br&gt;Content Editors of the website" style="shape=umlActor;verticalLabelPosition=bottom;verticalAlign=top;html=1;outlineConnect=0;strokeColor=#000000;fillColor=#ffffff;" parent="1" vertex="1">
          <mxGeometry x="415" y="130" width="30" height="60" as="geometry" />
        </mxCell>
        <mxCell id="xXB0880YJBGl5hXITFnQ-23" style="rounded=0;orthogonalLoop=1;jettySize=auto;html=1;entryX=1;entryY=0.348;entryDx=0;entryDy=0;entryPerimeter=0;edgeStyle=orthogonalEdgeStyle;curved=1;" parent="1" target="xXB0880YJBGl5hXITFnQ-14" edge="1">
          <mxGeometry relative="1" as="geometry">
            <mxPoint x="750" y="320" as="sourcePoint" />
            <Array as="points">
              <mxPoint x="750" y="310" />
              <mxPoint x="752" y="310" />
              <mxPoint x="752" y="508" />
            </Array>
          </mxGeometry>
        </mxCell>
        <mxCell id="VBMkfDUlIMW8kVnEWXf--10" value="Read content and download files&lt;br&gt;&lt;i&gt;[PULL content and files]&lt;/i&gt;" style="edgeLabel;html=1;align=center;verticalAlign=middle;resizable=0;points=[];" parent="xXB0880YJBGl5hXITFnQ-23" vertex="1" connectable="0">
          <mxGeometry x="-0.0113" relative="1" as="geometry">
            <mxPoint x="38" y="-107" as="offset" />
          </mxGeometry>
        </mxCell>
        <mxCell id="xXB0880YJBGl5hXITFnQ-25" value="Public User&lt;br&gt;A public user of the website" style="shape=umlActor;verticalLabelPosition=bottom;verticalAlign=top;html=1;outlineConnect=0;strokeColor=#000000;fillColor=#ffffff;" parent="1" vertex="1">
          <mxGeometry x="737" y="210" width="30" height="60" as="geometry" />
        </mxCell>
        <mxCell id="xXB0880YJBGl5hXITFnQ-26" value="sdgs.un.org System Container&lt;br&gt;&lt;i style=&quot;font-size: 16px; line-height: 9.6px;&quot;&gt;&lt;span style=&quot;font-weight: 400;&quot;&gt;&lt;a href=&quot;https://sdgs.un.org/&quot;&gt;https://sdgs.un.org/&lt;/a&gt;&lt;/span&gt;&lt;span style=&quot;font-weight: normal; line-height: 17.6px;&quot;&gt;&amp;nbsp;- Prod&lt;br&gt;&lt;a href=&quot;https://sdgs.dev.un.org/&quot;&gt;https://sdgs.dev.un.org&lt;/a&gt;&amp;nbsp;- Dev&lt;br&gt;&lt;i style=&quot;font-weight: 700; line-height: 9.6px;&quot;&gt;&lt;span style=&quot;font-weight: normal; line-height: 17.6px;&quot;&gt;&lt;a href=&quot;https://sdgs.qa.un.org/&quot;&gt;https://sdgs.qa.un.org&lt;/a&gt;&amp;nbsp;- QA&lt;/span&gt;&lt;/i&gt;&lt;/span&gt;&lt;/i&gt;" style="text;strokeColor=none;fillColor=none;html=1;fontSize=24;fontStyle=1;verticalAlign=middle;align=center;" parent="1" vertex="1">
          <mxGeometry x="255" y="60" width="100" height="40" as="geometry" />
        </mxCell>
        <mxCell id="VBMkfDUlIMW8kVnEWXf--3" style="edgeStyle=orthogonalEdgeStyle;curved=1;rounded=0;orthogonalLoop=1;jettySize=auto;html=1;entryX=0.25;entryY=0;entryDx=0;entryDy=0;entryPerimeter=0;exitX=0.45;exitY=1.015;exitDx=0;exitDy=0;exitPerimeter=0;" parent="1" source="VBMkfDUlIMW8kVnEWXf--1" target="xXB0880YJBGl5hXITFnQ-10" edge="1">
          <mxGeometry relative="1" as="geometry">
            <Array as="points">
              <mxPoint x="202" y="640" />
              <mxPoint x="344" y="640" />
            </Array>
          </mxGeometry>
        </mxCell>
        <mxCell id="VBMkfDUlIMW8kVnEWXf--5" value="Create/Read/Update/Delete content, files&amp;nbsp;&lt;br&gt;and user authorization&lt;br&gt;&lt;i&gt;[PULL/PUSH content, files and user authorization]&lt;/i&gt;" style="edgeLabel;html=1;align=center;verticalAlign=middle;resizable=0;points=[];" parent="VBMkfDUlIMW8kVnEWXf--3" vertex="1" connectable="0">
          <mxGeometry x="-0.6962" y="12" relative="1" as="geometry">
            <mxPoint as="offset" />
          </mxGeometry>
        </mxCell>
        <object placeholders="1" c4Name="Drupal Presentation Layer" c4Type="Container" c4Technology="Admin Theme" c4Description="User interface for Admin users" label="&lt;b&gt;%c4Name%&lt;/b&gt;&lt;div&gt;[%c4Type%: %c4Technology%]&lt;/div&gt;&lt;br&gt;&lt;div&gt;%c4Description%&lt;/div&gt;" id="VBMkfDUlIMW8kVnEWXf--1">
          <mxCell style="rounded=1;whiteSpace=wrap;html=1;labelBackgroundColor=none;fillColor=#85BBF0;fontColor=#ffffff;align=center;arcSize=10;strokeColor=#78A8D8;metaEdit=1;metaData={&quot;c4Type&quot;:{&quot;editable&quot;:false}};points=[[0.25,0,0],[0.5,0,0],[0.75,0,0],[1,0.25,0],[1,0.5,0],[1,0.75,0],[0.75,1,0],[0.5,1,0],[0.25,1,0],[0,0.75,0],[0,0.5,0],[0,0.25,0]];" parent="1" vertex="1">
            <mxGeometry x="130" y="480" width="160" height="110.00000000000001" as="geometry" />
          </mxCell>
        </object>
        <mxCell id="Bu7_vYAvOQrZbztzWP5K-8" value="SMTP Service" style="ellipse;whiteSpace=wrap;html=1;fillColor=#85BBF0;" parent="1" vertex="1">
          <mxGeometry x="610" y="750" width="120" height="80" as="geometry" />
        </mxCell>
        <mxCell id="dJNGcctZBXjR5YwxkmDR-1" value="Pass Authentication Info" style="edgeLabel;html=1;align=center;verticalAlign=middle;resizable=0;points=[];labelBorderColor=#2FFF0F;" parent="1" vertex="1" connectable="0">
          <mxGeometry x="370" y="420" as="geometry" />
        </mxCell>
        <mxCell id="dJNGcctZBXjR5YwxkmDR-3" value="Pass Authentication Info" style="edgeLabel;html=1;align=center;verticalAlign=middle;resizable=0;points=[];labelBorderColor=#2FFF0F;" parent="1" vertex="1" connectable="0">
          <mxGeometry x="290" y="300" as="geometry" />
        </mxCell>
        <mxCell id="fSkdzEtW4nZQh_2HrwFM-3" style="rounded=0;orthogonalLoop=1;jettySize=auto;html=1;entryX=1.019;entryY=0.409;entryDx=0;entryDy=0;entryPerimeter=0;edgeStyle=orthogonalEdgeStyle;curved=1;" edge="1" parent="1" target="VBMkfDUlIMW8kVnEWXf--1">
          <mxGeometry relative="1" as="geometry">
            <mxPoint x="600" y="270" as="sourcePoint" />
            <Array as="points">
              <mxPoint x="600" y="260" />
              <mxPoint x="602" y="260" />
              <mxPoint x="602" y="450" />
              <mxPoint x="293" y="450" />
            </Array>
            <mxPoint x="390" y="458.28" as="targetPoint" />
          </mxGeometry>
        </mxCell>
        <mxCell id="fSkdzEtW4nZQh_2HrwFM-5" value="Edits its own partnerships&lt;br&gt;&lt;i&gt;[PULL content and files]&lt;/i&gt;" style="edgeLabel;html=1;align=center;verticalAlign=middle;resizable=0;points=[];" vertex="1" connectable="0" parent="1">
          <mxGeometry x="588" y="404" as="geometry" />
        </mxCell>
        <mxCell id="fSkdzEtW4nZQh_2HrwFM-2" value="Partner&lt;br&gt;&lt;br&gt;A restricted editor&amp;nbsp;" style="shape=umlActor;verticalLabelPosition=bottom;verticalAlign=top;html=1;outlineConnect=0;strokeColor=#000000;fillColor=#ffffff;" vertex="1" parent="1">
          <mxGeometry x="590" y="180" width="30" height="60" as="geometry" />
        </mxCell>
      </root>
    </mxGraphModel>
  </diagram>
</mxfile>
